<?xml version="1.0" standalone="no"?><!DOCTYPE svg PUBLIC "-//W3C//DTD SVG 1.1//EN" "http://www.w3.org/Graphics/SVG/1.1/DTD/svg11.dtd"><svg t="1699939039772" class="icon" viewBox="0 0 1024 1024" version="1.1" xmlns="http://www.w3.org/2000/svg" p-id="4843" xmlns:xlink="http://www.w3.org/1999/xlink" width="16" height="16"><path d="M829.653687 196.040908C745.000682 111.387903 632.446209 64.766073 512.728594 64.766073c-119.719662 0-232.272088 46.62183-316.926116 131.274836C111.149473 280.694937 64.527642 393.247362 64.527642 512.967024c0 119.717615 46.62183 232.272088 131.274836 316.925093 84.654029 84.655052 197.207477 131.274836 316.926116 131.274836 119.717615 0 232.272088-46.620807 316.925093-131.274836 84.655052-84.653005 131.275859-197.207477 131.275859-316.925093C960.928522 393.247362 914.308739 280.694937 829.653687 196.040908zM512.728594 921.148517c-225.073128 0-408.18354-183.109388-408.18354-408.182516 0-225.072105 183.110411-408.182516 408.18354-408.182516s408.182516 183.110411 408.182516 408.182516C920.91111 738.039129 737.801722 921.148517 512.728594 921.148517z" fill="#e6e6e6" p-id="4844"></path><path d="M541.025057 515.993964l225.347374-225.347374c7.813966-7.813966 7.813966-20.48352 0-28.297486-7.816013-7.813966-20.481474-7.813966-28.297486 0L512.727571 487.696478 287.380196 262.349103c-7.813966-7.813966-20.48352-7.813966-28.297486 0-7.812943 7.813966-7.812943 20.48352 0 28.297486l225.347374 225.347374L257.860882 742.563166c-7.812943 7.813966-7.812943 20.48352 0 28.297486 3.906983 3.90596 9.028631 5.860475 14.149255 5.860475 5.120624 0 10.242272-1.954515 14.149255-5.860475l226.569202-226.569202 226.569202 226.569202c3.908006 3.90596 9.027607 5.860475 14.149255 5.860475 5.121648 0 10.241248-1.954515 14.149255-5.860475 7.813966-7.813966 7.813966-20.48352 0-28.297486L541.025057 515.993964z" fill="#e6e6e6" p-id="4845"></path></svg>