<?xml version="1.0" standalone="no"?><!DOCTYPE svg PUBLIC "-//W3C//DTD SVG 1.1//EN" "http://www.w3.org/Graphics/SVG/1.1/DTD/svg11.dtd"><svg t="1698938042171" class="icon" viewBox="0 0 1024 1024" version="1.1" xmlns="http://www.w3.org/2000/svg" p-id="16973" xmlns:xlink="http://www.w3.org/1999/xlink" width="16" height="16"><path d="M810.666667 960h-136.533334v-42.666667H810.666667c12.8 0 21.333333-8.533333 21.333333-21.333333v-192h42.666667V896c0 34.133333-29.866667 64-64 64zM341.333333 960H213.333333c-34.133333 0-64-29.866667-64-64V128c0-34.133333 29.866667-64 64-64h597.333334c34.133333 0 64 29.866667 64 64v213.333333h-42.666667V128c0-12.8-8.533333-21.333333-21.333333-21.333333H213.333333c-12.8 0-21.333333 8.533333-21.333333 21.333333v768c0 12.8 8.533333 21.333333 21.333333 21.333333h128v42.666667z" p-id="16974" fill="#1296db"></path><path d="M341.333333 320h298.666667v42.666667H341.333333zM475.904 926.506667l362.325333-447.786667 33.152 26.88-362.282666 447.744zM341.333333 490.666667h170.666667v42.666666H341.333333z" p-id="16975" fill="#1296db"></path></svg>