<?xml version="1.0" standalone="no"?><!DOCTYPE svg PUBLIC "-//W3C//DTD SVG 1.1//EN" "http://www.w3.org/Graphics/SVG/1.1/DTD/svg11.dtd"><svg t="1697943015551" class="icon" viewBox="0 0 1024 1024" version="1.1" xmlns="http://www.w3.org/2000/svg" p-id="31840" width="13" height="13" xmlns:xlink="http://www.w3.org/1999/xlink"><path d="M125.155556 146.966756m11.377777 0l109.988978 0q11.377778 0 11.377778 11.377777l0 707.322311q0 11.377778-11.377778 11.377778l-109.988978 0q-11.377778 0-11.377777-11.377778l0-707.322311q0-11.377778 11.377777-11.377777Z" fill="#368CFF" p-id="31841"></path><path d="M282.544356 194.377956m45.511111 0l402.011022 0q45.511111 0 45.511111 45.511111l0 89.122133q0 45.511111-45.511111 45.511111l-402.011022 0q-45.511111 0-45.511111-45.511111l0-89.122133q0-45.511111 45.511111-45.511111Z" fill="#5AB92A" p-id="31842"></path><path d="M282.544356 421.933511m45.511111 0l525.277866 0q45.511111 0 45.511111 45.511111l0 89.122134q0 45.511111-45.511111 45.511111l-525.277866 0q-45.511111 0-45.511111-45.511111l0-89.122134q0-45.511111 45.511111-45.511111Z" fill="#368CFF" p-id="31843"></path><path d="M282.544356 649.489067m45.511111 0l245.566577 0q45.511111 0 45.511112 45.511111l0 89.122133q0 45.511111-45.511112 45.511111l-245.566577 0q-45.511111 0-45.511111-45.511111l0-89.122133q0-45.511111 45.511111-45.511111Z" fill="#FFD432" p-id="31844"></path></svg>